<svg width="20" height="19" viewBox="0 0 20 19" fill="none" xmlns="http://www.w3.org/2000/svg">
<path d="M6.68386 19C3.11194 18.9794 0.157314 11.6879 0.157314 7.97455C0.157314 1.90873 4.70771 0.580766 6.46139 0.580766C7.25171 0.580766 8.0956 0.891125 8.83993 1.16577C9.36043 1.35734 9.89874 1.55511 10.1981 1.55511C10.3773 1.55511 10.7996 1.38687 11.1725 1.23927C11.9676 0.922719 12.9571 0.529297 14.1092 0.529297C14.1113 0.529297 14.1141 0.529297 14.1161 0.529297C14.9764 0.529297 17.585 0.718109 19.1533 3.0733L19.5207 3.62534L18.992 4.0243C18.2367 4.5942 16.8586 5.6338 16.8586 7.69306C16.8586 10.132 18.4193 11.07 19.1691 11.5211C19.5001 11.7202 19.8427 11.9255 19.8427 12.3746C19.8427 12.6678 17.5026 18.9636 14.1044 18.9636C13.2729 18.9636 12.6851 18.7137 12.1667 18.4933C11.6421 18.2701 11.1896 18.0779 10.4418 18.0779C10.0628 18.0779 9.5835 18.2571 9.07608 18.4473C8.38266 18.7061 7.59779 19 6.70721 19H6.68386Z" fill="#41414D"/>
</svg>
